<svg xmlns="http://www.w3.org/2000/svg" width="73" height="73" fill="none" viewBox="0 0 73 73">
  <path fill="#fff" d="M36.068 0a36.068 36.068 0 1 0 36.068 36.068H54.102a18.034 18.034 0 1 1-18.034-18.034V0Z"/>
  <path fill="#5CE1E6" d="M36.068 0A36.068 36.068 0 0 0 0 36.068h18.034a18.036 18.036 0 0 1 18.034-18.034V0Zm0 47.339c6.225 0 11.271-5.046 11.271-11.271 0-6.225-5.046-11.271-11.271-11.271-6.225 0-11.271 5.046-11.271 11.27 0 6.226 5.046 11.272 11.27 11.272Z"/>
  <path fill="#fff" d="M47.339 36.068a11.27 11.27 0 1 0-22.542 0h22.542Z"/>
</svg>
